# xmcd CD database file
#
# Track frame offsets:
#	187
#	9407
#	48130
#	64572
#	81660
#	106825
#	122047
#	144335
#	151280
#	162957
#	171080
#	174275
#	202947
#	217197
#	237732
#	257720
#
# Disc length: 3458 seconds
#
# Revision: 0
# Processed by: cddbd v1.5.1PL2 Copyright (c) Steve Scherf et al.
# Submitted via: CDex 1.51
#
DISCID=d50d8010
DTITLE=Teddy Wilson - Marian McPartland's Piano Jazz
DYEAR=1993
DGENRE=Jazz
TTITLE0=Stompin' At the Savoy
TTITLE1=Conversation
TTITLE2=Sophisticated Lady and Don't Get Around Much Anymore
TTITLE3=Conversation
TTITLE4=I'll Remember April
TTITLE5=Conversation
TTITLE6=Lush Life and Take the A Train
TTITLE7=Conversation
TTITLE8=Marian's Motif
TTITLE9=Conversation
TTITLE10=Traumerie
TTITLE11=Conversation
TTITLE12=Moonglow
TTITLE13=Conversation
TTITLE14=Flying Home
TTITLE15=Conversation
EXTD=YEAR: 1993
EXTT0=
EXTT1=
EXTT2=
EXTT3=
EXTT4=
EXTT5=
EXTT6=
EXTT7=
EXTT8=
EXTT9=
EXTT10=
EXTT11=
EXTT12=
EXTT13=
EXTT14=
EXTT15=
PLAYORDER=
